<?xml version="1.0" encoding="utf-8"?>
<!-- Generator: Adobe Illustrator 24.2.0, SVG Export Plug-In . SVG Version: 6.00 Build 0)  -->
<svg version="1.1" id="Calque_1" xmlns="http://www.w3.org/2000/svg" xmlns:xlink="http://www.w3.org/1999/xlink" x="0px" y="0px"
	 viewBox="0 0 283.46 141.73" style="enable-background:new 0 0 283.46 141.73;" xml:space="preserve">
<g>
	<polygon points="127.91,40.88 127.91,83.58 140.8,83.58 142.3,92.05 117.98,92.05 117.98,40.88 	"/>
	<polygon points="167.31,49.65 154.46,49.65 154.46,60.5 164.92,60.5 163.47,68.97 154.46,68.97 154.46,83.58 165.81,83.58 
		167.31,92.05 144.53,92.05 144.53,40.88 168.96,40.88 	"/>
	<polygon points="178.54,92.05 178.54,40.88 202.78,40.88 201.11,49.65 188.46,49.65 188.46,60.5 198.94,60.5 197.26,68.97 
		188.46,68.97 188.46,92.05 	"/>
	<rect x="204.01" y="40.88" width="9.92" height="51.17"/>
	<polygon points="237.33,92.05 224.79,92.05 215.94,40.88 225.87,40.88 230.79,76.27 231.18,76.27 236.18,40.88 246.1,40.88 	"/>
	<polygon points="248.18,40.88 248.18,92.05 272.52,92.05 271.02,83.58 258.11,83.58 258.11,68.97 267.13,68.97 268.57,60.5 
		258.11,60.5 258.11,49.65 270.96,49.65 272.62,40.88 	"/>
	<g>
		<path d="M89.02,25.26l18.46,56.82L59.14,117.2L10.81,82.08l18.46-56.82H89.02z M60.33,57.87v8.25c3.54,0,6.42,2.88,6.42,6.43
			c0,3.54-2.88,6.42-6.42,6.42s-6.43-2.89-6.43-6.42h-0.48h-7.79c0,7.18,6.22,14.67,14.7,14.67c8.09,0,14.67-6.58,14.67-14.67
			C75,64.45,68.42,57.87,60.33,57.87 M54.05,51.86l17.4,0v-8.25H45.66v22.35l8.39,0V51.86z"/>
	</g>
</g>
</svg>
